<svg xmlns="http://www.w3.org/2000/svg" version="1.1" xmlns:xlink="http://www.w3.org/1999/xlink" xmlns:svgjs="http://svgjs.dev/svgjs" width="128" height="128" viewBox="0 0 128 128"><g transform="matrix(0.8046875,0,0,0.8046875,12.333870967741937,25.091606673264195)"><svg viewBox="0 0 155 118" data-background-color="#ffffff" preserveAspectRatio="xMidYMid meet" height="97" width="128" xmlns="http://www.w3.org/2000/svg" xmlns:xlink="http://www.w3.org/1999/xlink"><g id="tight-bounds" transform="matrix(1,0,0,1,0.25,-0.17982456140350678)"><svg viewBox="0 0 154.5 118.35964912280703" height="118.35964912280703" width="154.5"><g><svg viewBox="0 0 154.5 118.35964912280703" height="118.35964912280703" width="154.5"><g><svg viewBox="0 0 154.5 118.35964912280703" height="118.35964912280703" width="154.5"><g id="textblocktransform"><svg viewBox="0 0 154.5 118.35964912280703" height="118.35964912280703" width="154.5" id="textblock"><g><svg viewBox="0 0 154.5 118.35964912280703" height="118.35964912280703" width="154.5"><g transform="matrix(1,0,0,1,0,0)"><svg width="154.5" viewBox="4.55 -32.75 42.75 32.75" height="118.35964912280703" data-palette-color="#222222"><path d="M7.3-2.55L20.95-2.55 20.95 0 4.55 0 4.55-32.75 7.3-32.75 7.3-2.55ZM30.45 0L27.7 0 27.7-32.75 30.45-32.75 30.45-17.55 44.55-17.55 44.55-32.75 47.3-32.75 47.3 0 44.55 0 44.55-15 30.45-15 30.45 0Z" opacity="1" transform="matrix(1,0,0,1,0,0)" fill="#ffffff" class="wordmark-text-0" data-fill-palette-color="primary" id="text-0"></path></svg></g></svg></g></svg></g></svg></g></svg></g><defs></defs></svg><rect width="154.5" height="118.35964912280703" fill="none" stroke="none" visibility="hidden"></rect></g></svg></g></svg>